<svg width="182" height="29" viewBox="0 0 182 29" fill="none" xmlns="http://www.w3.org/2000/svg">
<path d="M6.5625 6.07812V15.0469H11.0469C11.6615 15.0469 12.2396 14.9323 12.7812 14.7031C13.3229 14.4635 13.7969 14.1406 14.2031 13.7344C14.6094 13.3281 14.9271 12.8542 15.1562 12.3125C15.3958 11.7604 15.5156 11.1771 15.5156 10.5625C15.5156 9.94792 15.3958 9.36979 15.1562 8.82812C14.9271 8.27604 14.6094 7.79688 14.2031 7.39062C13.7969 6.98438 13.3229 6.66667 12.7812 6.4375C12.2396 6.19792 11.6615 6.07812 11.0469 6.07812H6.5625ZM6.5625 24H2.07812V1.59375H11.0469C11.8698 1.59375 12.6615 1.70312 13.4219 1.92188C14.1823 2.13021 14.8906 2.43229 15.5469 2.82812C16.2135 3.21354 16.8177 3.68229 17.3594 4.23438C17.9115 4.77604 18.3802 5.38021 18.7656 6.04688C19.1615 6.71354 19.4635 7.42708 19.6719 8.1875C19.8906 8.94792 20 9.73958 20 10.5625C20 11.7917 19.7656 12.9531 19.2969 14.0469C18.8281 15.1302 18.1875 16.0781 17.375 16.8906C16.5625 17.7031 15.6094 18.3438 14.5156 18.8125C13.4323 19.2812 12.276 19.5156 11.0469 19.5156H6.5625V24ZM27.125 6.07812V15.0469H31.6094C32.224 15.0469 32.8021 14.9323 33.3438 14.7031C33.8854 14.4635 34.3594 14.1406 34.7656 13.7344C35.1719 13.3281 35.4896 12.8542 35.7188 12.3125C35.9583 11.7604 36.0781 11.1771 36.0781 10.5625C36.0781 9.94792 35.9583 9.36979 35.7188 8.82812C35.4896 8.27604 35.1719 7.79688 34.7656 7.39062C34.3594 6.98438 33.8854 6.66667 33.3438 6.4375C32.8021 6.19792 32.224 6.07812 31.6094 6.07812H27.125ZM27.125 24H22.6406V1.59375H31.6094C32.4323 1.59375 33.224 1.70312 33.9844 1.92188C34.7448 2.13021 35.4531 2.43229 36.1094 2.82812C36.776 3.21354 37.3802 3.68229 37.9219 4.23438C38.474 4.77604 38.9427 5.38021 39.3281 6.04688C39.724 6.71354 40.026 7.42708 40.2344 8.1875C40.4531 8.94792 40.5625 9.73958 40.5625 10.5625C40.5625 11.3333 40.4635 12.0833 40.2656 12.8125C40.0781 13.5417 39.8021 14.2344 39.4375 14.8906C39.0833 15.5469 38.6458 16.151 38.125 16.7031C37.6042 17.2552 37.0208 17.7344 36.375 18.1406L38.8594 24H34.0938L32.1406 19.4844L27.125 19.5156V24ZM65.4688 12.8906C65.4688 13.9531 65.3281 14.9792 65.0469 15.9688C64.776 16.9479 64.3906 17.8698 63.8906 18.7344C63.3906 19.5885 62.7865 20.3698 62.0781 21.0781C61.3698 21.7865 60.5885 22.3958 59.7344 22.9062C58.8802 23.4062 57.9583 23.7917 56.9688 24.0625C55.9792 24.3438 54.9531 24.4844 53.8906 24.4844C52.8281 24.4844 51.8021 24.3438 50.8125 24.0625C49.8333 23.7917 48.9115 23.4062 48.0469 22.9062C47.1927 22.3958 46.4115 21.7865 45.7031 21.0781C44.9948 20.3698 44.3854 19.5885 43.875 18.7344C43.375 17.8698 42.9844 16.9479 42.7031 15.9688C42.4323 14.9792 42.2969 13.9531 42.2969 12.8906C42.2969 11.8281 42.4323 10.8021 42.7031 9.8125C42.9844 8.82292 43.375 7.90104 43.875 7.04688C44.3854 6.19271 44.9948 5.41146 45.7031 4.70312C46.4115 3.99479 47.1927 3.39062 48.0469 2.89062C48.9115 2.39062 49.8333 2.00521 50.8125 1.73438C51.8021 1.45312 52.8281 1.3125 53.8906 1.3125C54.9531 1.3125 55.9792 1.45312 56.9688 1.73438C57.9583 2.00521 58.8802 2.39062 59.7344 2.89062C60.5885 3.39062 61.3698 3.99479 62.0781 4.70312C62.7865 5.41146 63.3906 6.19271 63.8906 7.04688C64.3906 7.90104 64.776 8.82292 65.0469 9.8125C65.3281 10.8021 65.4688 11.8281 65.4688 12.8906ZM61.0156 12.8906C61.0156 11.9115 60.8281 10.9896 60.4531 10.125C60.0781 9.25 59.5677 8.49479 58.9219 7.85938C58.2865 7.21354 57.5312 6.70312 56.6562 6.32812C55.7917 5.95312 54.8698 5.76562 53.8906 5.76562C52.901 5.76562 51.974 5.95312 51.1094 6.32812C50.2448 6.70312 49.4896 7.21354 48.8438 7.85938C48.1979 8.49479 47.6875 9.25 47.3125 10.125C46.9375 10.9896 46.75 11.9115 46.75 12.8906C46.75 13.8698 46.9375 14.7917 47.3125 15.6562C47.6875 16.5104 48.1979 17.2604 48.8438 17.9062C49.4896 18.5521 50.2448 19.0625 51.1094 19.4375C51.974 19.8125 52.901 20 53.8906 20C54.8698 20 55.7917 19.8125 56.6562 19.4375C57.5312 19.0625 58.2865 18.5521 58.9219 17.9062C59.5677 17.2604 60.0781 16.5104 60.4531 15.6562C60.8281 14.7917 61.0156 13.8698 61.0156 12.8906ZM72.9062 24H68.4219V1.59375H84.1094V6.07812H72.9062V10.5625H79.625V15.0469H72.9062V24ZM91.7773 24H85.0742V21.0781H91.7773C91.9779 21.0781 92.1497 21.0065 92.293 20.8633C92.4362 20.7201 92.5078 20.5482 92.5078 20.3477C92.5078 20.14 92.4362 20.0039 92.293 19.9395C92.1497 19.875 91.9779 19.8428 91.7773 19.8428H88.7266C88.2181 19.8428 87.7419 19.7461 87.2979 19.5527C86.8538 19.3594 86.4671 19.098 86.1377 18.7686C85.8083 18.432 85.5469 18.0417 85.3535 17.5977C85.1673 17.1536 85.0742 16.6774 85.0742 16.1689C85.0742 15.6605 85.1673 15.1842 85.3535 14.7402C85.5469 14.2962 85.8083 13.9095 86.1377 13.5801C86.4671 13.2507 86.8538 12.9928 87.2979 12.8066C87.7419 12.6133 88.2181 12.5166 88.7266 12.5166H94.667V15.4385H88.7266C88.526 15.4385 88.3542 15.5101 88.2109 15.6533C88.0677 15.7965 87.9961 15.9684 87.9961 16.1689C87.9961 16.3766 88.0677 16.5557 88.2109 16.7061C88.3542 16.8493 88.526 16.9209 88.7266 16.9209H91.7773C92.2786 16.9209 92.7513 17.0068 93.1953 17.1787C93.6393 17.3434 94.026 17.5762 94.3555 17.877C94.6849 18.1777 94.9463 18.5394 95.1396 18.9619C95.333 19.3844 95.4297 19.8464 95.4297 20.3477C95.4297 20.8561 95.333 21.3324 95.1396 21.7764C94.9463 22.2132 94.6849 22.5999 94.3555 22.9365C94.026 23.266 93.6393 23.5273 93.1953 23.7207C92.7513 23.9069 92.2786 24 91.7773 24ZM99.9521 28.3828H96.998V12.4951H97.707L98.8779 13.8809C99.1429 13.6302 99.4329 13.3939 99.748 13.1719C100.063 12.9499 100.389 12.7601 100.726 12.6025C101.069 12.4378 101.424 12.3089 101.789 12.2158C102.154 12.1227 102.523 12.0762 102.896 12.0762C103.705 12.0762 104.464 12.223 105.173 12.5166C105.889 12.8031 106.512 13.2113 107.042 13.7412C107.579 14.2712 108.002 14.9121 108.31 15.6641C108.618 16.4089 108.771 17.236 108.771 18.1455C108.771 19.0908 108.618 19.943 108.31 20.7021C108.002 21.4541 107.579 22.0951 107.042 22.625C106.512 23.1478 105.889 23.5488 105.173 23.8281C104.464 24.1074 103.705 24.2471 102.896 24.2471C102.638 24.2471 102.38 24.2184 102.122 24.1611C101.871 24.1038 101.621 24.0286 101.37 23.9355C101.127 23.8353 100.883 23.7243 100.64 23.6025C100.403 23.4808 100.174 23.3555 99.9521 23.2266V28.3828ZM105.828 18.1455C105.828 17.6585 105.749 17.2217 105.592 16.835C105.441 16.4482 105.234 16.1224 104.969 15.8574C104.704 15.5853 104.392 15.3776 104.034 15.2344C103.676 15.0911 103.297 15.0195 102.896 15.0195C102.494 15.0195 102.115 15.0911 101.757 15.2344C101.406 15.3776 101.098 15.5853 100.833 15.8574C100.568 16.1224 100.357 16.4482 100.199 16.835C100.049 17.2217 99.9736 17.6585 99.9736 18.1455C99.9736 18.611 100.049 19.0371 100.199 19.4238C100.357 19.8105 100.568 20.14 100.833 20.4121C101.098 20.6842 101.406 20.8955 101.757 21.0459C102.115 21.1963 102.494 21.2715 102.896 21.2715C103.297 21.2715 103.676 21.1963 104.034 21.0459C104.392 20.8955 104.704 20.6842 104.969 20.4121C105.234 20.14 105.441 19.8105 105.592 19.4238C105.749 19.0371 105.828 18.611 105.828 18.1455ZM114.98 21.1855C115.095 21.2214 115.21 21.2464 115.324 21.2607C115.439 21.2679 115.553 21.2715 115.668 21.2715C115.954 21.2715 116.23 21.2321 116.495 21.1533C116.76 21.0745 117.007 20.9635 117.236 20.8203C117.473 20.6699 117.68 20.4909 117.859 20.2832C118.046 20.0684 118.196 19.832 118.311 19.5742L120.459 21.7334C120.187 22.1201 119.872 22.4674 119.514 22.7754C119.163 23.0833 118.78 23.3447 118.364 23.5596C117.956 23.7744 117.523 23.9355 117.064 24.043C116.613 24.1576 116.148 24.2148 115.668 24.2148C114.859 24.2148 114.096 24.0645 113.38 23.7637C112.671 23.4629 112.048 23.0439 111.511 22.5068C110.981 21.9697 110.562 21.3324 110.254 20.5947C109.946 19.8499 109.792 19.0335 109.792 18.1455C109.792 17.236 109.946 16.4053 110.254 15.6533C110.562 14.9014 110.981 14.2604 111.511 13.7305C112.048 13.2005 112.671 12.7887 113.38 12.4951C114.096 12.2015 114.859 12.0547 115.668 12.0547C116.148 12.0547 116.617 12.112 117.075 12.2266C117.534 12.3411 117.967 12.5059 118.375 12.7207C118.79 12.9355 119.177 13.2005 119.535 13.5156C119.893 13.8236 120.208 14.1709 120.48 14.5576L114.98 21.1855ZM116.484 15.1377C116.348 15.0876 116.212 15.0553 116.076 15.041C115.947 15.0267 115.811 15.0195 115.668 15.0195C115.267 15.0195 114.887 15.0947 114.529 15.2451C114.178 15.3883 113.87 15.596 113.605 15.8682C113.348 16.1403 113.144 16.4697 112.993 16.8564C112.843 17.236 112.768 17.6657 112.768 18.1455C112.768 18.2529 112.771 18.3747 112.778 18.5107C112.793 18.6468 112.811 18.7865 112.832 18.9297C112.861 19.0658 112.893 19.1982 112.929 19.3271C112.965 19.4561 113.011 19.5706 113.068 19.6709L116.484 15.1377ZM131.932 14.7832L129.783 16.9424C129.676 16.6416 129.529 16.373 129.343 16.1367C129.157 15.8932 128.945 15.6891 128.709 15.5244C128.48 15.3597 128.229 15.2344 127.957 15.1484C127.685 15.0625 127.406 15.0195 127.119 15.0195C126.718 15.0195 126.339 15.1019 125.98 15.2666C125.63 15.4313 125.322 15.6641 125.057 15.9648C124.799 16.2585 124.595 16.6094 124.444 17.0176C124.294 17.4258 124.219 17.877 124.219 18.3711C124.219 18.7721 124.294 19.1481 124.444 19.499C124.595 19.8499 124.799 20.1579 125.057 20.4229C125.322 20.6878 125.63 20.8955 125.98 21.0459C126.339 21.1963 126.718 21.2715 127.119 21.2715C127.406 21.2715 127.681 21.2321 127.946 21.1533C128.211 21.0745 128.458 20.9635 128.688 20.8203C128.924 20.6699 129.132 20.4909 129.311 20.2832C129.497 20.0684 129.647 19.832 129.762 19.5742L131.91 21.7334C131.638 22.1201 131.323 22.4674 130.965 22.7754C130.614 23.0833 130.231 23.3447 129.815 23.5596C129.407 23.7744 128.974 23.9355 128.516 24.043C128.064 24.1576 127.599 24.2148 127.119 24.2148C126.31 24.2148 125.547 24.0645 124.831 23.7637C124.122 23.4557 123.499 23.0368 122.962 22.5068C122.432 21.9769 122.013 21.3574 121.705 20.6484C121.397 19.9395 121.243 19.1803 121.243 18.3711C121.243 17.4902 121.397 16.6667 121.705 15.9004C122.013 15.1341 122.432 14.4681 122.962 13.9023C123.499 13.3294 124.122 12.8783 124.831 12.5488C125.547 12.2194 126.31 12.0547 127.119 12.0547C127.599 12.0547 128.068 12.1156 128.526 12.2373C128.992 12.359 129.432 12.5381 129.848 12.7744C130.27 13.0036 130.657 13.2865 131.008 13.623C131.366 13.9596 131.674 14.3464 131.932 14.7832ZM139.14 24C138.431 24 137.765 23.8675 137.142 23.6025C136.519 23.3304 135.971 22.9616 135.498 22.4961C135.033 22.0234 134.664 21.4756 134.392 20.8525C134.127 20.2295 133.994 19.5635 133.994 18.8545V15.4385H132.565V12.5166H133.994V7.91895H136.916V12.5166H141.363V15.4385H136.916V18.8545C136.916 19.1624 136.973 19.4525 137.088 19.7246C137.202 19.9896 137.36 20.2223 137.561 20.4229C137.761 20.6234 137.997 20.7845 138.27 20.9062C138.542 21.0208 138.832 21.0781 139.14 21.0781H141.363V24H139.14ZM146.477 9.36914C146.477 9.64128 146.423 9.89551 146.315 10.1318C146.215 10.3682 146.076 10.5758 145.896 10.7549C145.717 10.9268 145.506 11.0664 145.263 11.1738C145.026 11.2741 144.772 11.3242 144.5 11.3242C144.228 11.3242 143.97 11.2741 143.727 11.1738C143.49 11.0664 143.283 10.9268 143.104 10.7549C142.932 10.5758 142.792 10.3682 142.685 10.1318C142.584 9.89551 142.534 9.64128 142.534 9.36914C142.534 9.10417 142.584 8.85352 142.685 8.61719C142.792 8.3737 142.932 8.16602 143.104 7.99414C143.283 7.8151 143.49 7.67546 143.727 7.5752C143.97 7.46777 144.228 7.41406 144.5 7.41406C144.772 7.41406 145.026 7.46777 145.263 7.5752C145.506 7.67546 145.717 7.8151 145.896 7.99414C146.076 8.16602 146.215 8.3737 146.315 8.61719C146.423 8.85352 146.477 9.10417 146.477 9.36914ZM145.972 24H143.018V12.4951H145.972V24ZM151.482 24L147.1 12.4951H150.44L152.954 19.6709L155.457 12.4951H158.809L154.426 24H151.482ZM164.158 21.1855C164.273 21.2214 164.387 21.2464 164.502 21.2607C164.617 21.2679 164.731 21.2715 164.846 21.2715C165.132 21.2715 165.408 21.2321 165.673 21.1533C165.938 21.0745 166.185 20.9635 166.414 20.8203C166.65 20.6699 166.858 20.4909 167.037 20.2832C167.223 20.0684 167.374 19.832 167.488 19.5742L169.637 21.7334C169.365 22.1201 169.049 22.4674 168.691 22.7754C168.34 23.0833 167.957 23.3447 167.542 23.5596C167.134 23.7744 166.701 23.9355 166.242 24.043C165.791 24.1576 165.326 24.2148 164.846 24.2148C164.036 24.2148 163.274 24.0645 162.558 23.7637C161.849 23.4629 161.226 23.0439 160.688 22.5068C160.159 21.9697 159.74 21.3324 159.432 20.5947C159.124 19.8499 158.97 19.0335 158.97 18.1455C158.97 17.236 159.124 16.4053 159.432 15.6533C159.74 14.9014 160.159 14.2604 160.688 13.7305C161.226 13.2005 161.849 12.7887 162.558 12.4951C163.274 12.2015 164.036 12.0547 164.846 12.0547C165.326 12.0547 165.795 12.112 166.253 12.2266C166.711 12.3411 167.145 12.5059 167.553 12.7207C167.968 12.9355 168.355 13.2005 168.713 13.5156C169.071 13.8236 169.386 14.1709 169.658 14.5576L164.158 21.1855ZM165.662 15.1377C165.526 15.0876 165.39 15.0553 165.254 15.041C165.125 15.0267 164.989 15.0195 164.846 15.0195C164.445 15.0195 164.065 15.0947 163.707 15.2451C163.356 15.3883 163.048 15.596 162.783 15.8682C162.525 16.1403 162.321 16.4697 162.171 16.8564C162.021 17.236 161.945 17.6657 161.945 18.1455C161.945 18.2529 161.949 18.3747 161.956 18.5107C161.97 18.6468 161.988 18.7865 162.01 18.9297C162.038 19.0658 162.071 19.1982 162.106 19.3271C162.142 19.4561 162.189 19.5706 162.246 19.6709L165.662 15.1377Z" fill="#E0DFFE"/>
<rect x="68.42" y="1.5" width="110" height="4.6" fill="#E0DFFE"/>
</svg>
